<svg xmlns="http://www.w3.org/2000/svg" fill="none" viewBox="-0.5 -0.5 16 16"
    id="Volume-Loud--Streamline-Solar.svg" height="24" width="24">
    <desc>Volume Loud Streamline Icon: https://streamlinehq.com</desc>
    <g id="Line Duotone/Video Audio Sound/Volume Loud">
        <path id="Vector" stroke="#737373" stroke-linecap="round"
            d="M12.5 3.75s0.9375 1.125 0.9375 3.75 -0.9375 3.75 -0.9375 3.75" stroke-width="1"></path>
        <path id="Vector_2" stroke="#737373" stroke-linecap="round"
            d="M11.25 5.625s0.3125 0.5625 0.3125 1.875 -0.3125 1.875 -0.3125 1.875" stroke-width="1"></path>
        <path id="Vector_3" stroke="#000000"
            d="M0.9592437500000001 6.857125c0.046049999999999994 -0.75553125 0.069075 -1.1332875 0.26484375 -1.49663125 0.17886875 -0.33197499999999996 0.5211 -0.65398125 0.8633375 -0.812325 0.37458125000000003 -0.1733 0.80393125 -0.1733 1.662625 -0.1733 0.32004375 0 0.48006875 0 0.635075 -0.026175 0.1532375 -0.02588125 0.3026625 -0.07070625 0.44484375 -0.13345625 0.14381875 -0.06346875 0.2774125 -0.15155625 0.54460625 -0.32772500000000004l0.13683125000000002 -0.090225c1.5893437499999998 -1.047925 2.38403125 -1.5718937499999999 3.05115625 -1.3442437500000002 0.12787500000000002 0.04364375 0.2516875 0.10665 0.36225 0.18435625 0.5766875 0.40528125 0.6205 1.34821875 0.708125 3.2340999999999998 0.0324375 0.6983125 0.0545625 1.2959375 0.0545625 1.628375 0 0.33243750000000005 -0.022125 0.9300625 -0.0545625 1.628375 -0.087625 1.885875 -0.13143749999999998 2.8288124999999997 -0.708125 3.2340625000000003 -0.11056250000000001 0.07775 -0.234375 0.14075000000000001 -0.36225 0.18437499999999998 -0.667125 0.22762500000000002 -1.4618125000000002 -0.29631250000000003 -3.05115625 -1.34425l-0.13683125000000002 -0.0901875c-0.26719375 -0.1761875 -0.4007875 -0.2643125 -0.54460625 -0.32775 -0.14218125 -0.06275 -0.29160625 -0.1075625 -0.44484375 -0.1334375 -0.15500625 -0.0261875 -0.31503125 -0.0261875 -0.635075 -0.0261875 -0.85869375 0 -1.28804375 0 -1.662625 -0.17331249999999998 -0.3422375 -0.15831250000000002 -0.6844687500000001 -0.480375 -0.8633375 -0.8123125 -0.19576875 -0.363375 -0.21879375 -0.741125 -0.26484375 -1.496625 -0.013625 -0.22349999999999998 -0.02174375 -0.44125 -0.02174375 -0.6427499999999999s0.00811875 -0.41924999999999996 0.02174375 -0.6427499999999999Z"
            stroke-width="1"></path>
    </g>
</svg>