<svg xmlns="http://www.w3.org/2000/svg" fill="none" viewBox="-0.5 -0.5 16 16"
    id="Volume-Cross--Streamline-Solar.svg" height="24" width="24">
    <desc>Volume Cross Streamline Icon: https://streamlinehq.com</desc>
    <g id="Line Duotone/Video Audio Sound/Volume Cross">
        <path id="Vector" stroke="#737373"
            d="M9.6875 5.3125V7.5c0 0.33243750000000005 -0.022125 0.9300625 -0.0545625 1.628375 -0.087625 1.885875 -0.13143749999999998 2.8288124999999997 -0.708125 3.2341249999999997 -0.11056250000000001 0.07768749999999999 -0.234375 0.1406875 -0.36225 0.1843125 -0.604625 0.2063125 -1.3141249999999998 -0.20475 -2.6250625 -1.063875C5.5208312500000005 11.197 4.625 10.625 4.375 10.625"
            stroke-width="1"></path>
        <path id="Vector_2" stroke="#737373" stroke-linecap="round"
            d="M12.5 11.25s0.9375 -1.125 0.9375 -3.75c0 -1.5208875 -0.31468749999999995 -2.5382375 -0.5794375 -3.125"
            stroke-width="1"></path>
        <path id="Vector_3" stroke="#737373" stroke-linecap="round"
            d="M11.25 9.375s0.3125 -0.5625 0.3125 -1.875c0 -0.5386875 -0.052625 -0.9510000000000001 -0.1146875 -1.25"
            stroke-width="1"></path>
        <path id="Vector_4" stroke="#000000"
            d="M4.385125 10.651062499999998c-0.15500625 -0.0261875 -0.31503125 -0.0261875 -0.635075 -0.0261875 -0.85869375 0 -1.28804375 0 -1.662625 -0.17331249999999998 -0.3422375 -0.15831250000000002 -0.6844687500000001 -0.480375 -0.8633375 -0.8123125 -0.19576875 -0.363375 -0.21879375 -0.741125 -0.26484375 -1.496625 -0.013625 -0.22349999999999998 -0.02174375 -0.44125 -0.02174375 -0.6427499999999999s0.00811875 -0.41924999999999996 0.02174375 -0.6427499999999999c0.046049999999999994 -0.75553125 0.069075 -1.1332875 0.26484375 -1.49663125 0.17886875 -0.33197499999999996 0.5211 -0.65398125 0.8633375 -0.812325 0.37458125000000003 -0.1733 0.80393125 -0.1733 1.662625 -0.1733 0.32004375 0 0.48006875 0 0.635075 -0.026175 0.1532375 -0.02588125 0.3026625 -0.07070625 0.44484375 -0.13345625 0.14381875 -0.06346875 0.2774125 -0.15155625 0.54460625 -0.32772500000000004l0.13683125000000002 -0.090225c1.5893437499999998 -1.047925 2.38403125 -1.5718937499999999 3.05115625 -1.3442437500000002 0.12787500000000002 0.04364375 0.2516875 0.10665 0.36225 0.18435625 0.5220625 0.36688125000000005 0.6074375 1.1743625 0.6839375000000001 2.7230937500000003"
            stroke-width="1"></path>
        <path id="Vector_5" stroke="#000000" stroke-linecap="round" d="M13.75 1.25 1.25 13.75"
            stroke-width="1"></path>
    </g>
</svg>